<svg width="1024" height="597" viewBox="0 0 1024 597" fill="none" xmlns="http://www.w3.org/2000/svg">
<path d="M42.8 5.85095C34.4 9.05096 23.6 14.6509 19.2 19.051C0 35.851 0 35.851 0 303.451V555.051L9.2 568.651C27.6 596.251 27.2 596.251 208.8 596.251C390.4 596.251 389.6 596.251 408 569.051C417.6 555.851 418 550.651 420 486.651C422 432.651 424 415.451 429.2 405.451C436.8 391.051 454.4 380.251 470 380.251C500 380.251 511.6 404.651 512 465.051C512 516.251 520.4 543.051 543.2 566.251C564 587.451 584.8 596.251 615.6 596.251C676 596.251 718.4 549.851 740.8 458.651L749.2 424.251H763.2H777.2L774.8 442.251C773.2 452.251 771.2 464.651 769.6 470.251C767.2 479.851 768 480.251 783.2 480.251H799.2L803.6 460.251C806 449.051 808 436.251 808 432.251C808 425.451 810.8 424.251 825.6 424.251C842 424.251 843.2 423.451 845.6 411.851C849.2 392.651 849.2 392.251 831.6 392.251H814.8L817.6 377.051C818.8 369.051 820 360.251 820 357.451C820 354.651 827.2 352.251 836.8 351.451C853.2 350.251 854 349.451 856.4 335.051L858.8 320.251H843.2C824.8 320.251 825.2 322.651 836 258.651C844.8 206.251 856.8 177.851 880 151.451C913.6 113.451 963.2 120.651 984.4 166.251C991.2 181.051 992 195.451 992 346.251C992 497.451 991.2 511.451 984.4 526.651C970 558.251 936 571.451 901.6 558.251C880 550.251 866.8 532.251 858.4 500.251L852.8 478.251L846.4 493.051C824 545.851 863.2 595.851 927.2 596.251C957.6 596.251 983.2 585.451 1000 565.051C1023.6 536.651 1024 531.051 1024 345.851C1024 185.851 1023.6 175.451 1016 155.051C995.6 100.651 936.4 77.451 884.4 103.851C862.4 115.451 846.8 135.451 816 192.651C801.2 219.851 784.4 245.851 778.4 250.251L767.2 258.251L758.4 247.851C753.2 241.851 738 215.851 724 190.251C683.6 114.251 660.4 94.651 610 94.651C578.8 94.651 564.8 100.251 544.4 120.651C526.4 138.651 517.6 158.251 510.4 196.251C500.8 245.851 484.4 269.451 444.8 289.851C437.6 293.451 405.2 302.651 372.8 310.251C313.6 323.451 267.6 338.251 238 353.051C179.2 382.651 99.2 450.651 54.8 509.051L34 536.251L32.8 513.851C31.2 487.051 32.8 484.651 76.4 438.651C154.8 355.451 245.6 306.251 366 280.651C420.4 269.051 420 269.451 419.6 202.651C419.6 173.851 418.4 147.451 416.8 143.451C411.6 130.651 294 11.051 281.2 5.85095C262.8 -2.14905 64.8 -1.74902 42.8 5.85095ZM331.6 131.451C288.4 133.051 286.4 131.051 284.8 85.051L283.2 50.251L323.6 90.251L364 130.251L331.6 131.451ZM642.4 135.451C657.2 143.451 674 165.851 693.6 204.651C704.4 225.051 719.2 251.051 726.8 261.451C739.2 279.051 740 282.251 737.6 300.251L735.2 319.851L716.4 321.051C698.8 322.251 698 322.651 695.6 337.051L693.2 352.251H710.8H728.4L726 367.051C721.6 391.851 721.2 392.251 702 392.251C685.6 392.251 684 393.051 684 401.851C684 407.051 682.8 414.251 681.6 417.851C679.6 423.051 682.4 424.251 697.6 424.251C715.6 424.251 716 424.651 713.6 435.051C700.8 491.051 678 535.451 653.6 551.851C621.2 573.851 577.2 563.451 557.2 529.051C547.2 512.651 546 505.851 544 456.251C541.6 406.251 540.8 400.251 530.8 383.051C505.6 340.251 450.4 333.851 415.2 369.051C393.6 390.651 388 413.851 388 484.251C388 537.451 387.2 543.451 380 551.451C375.6 556.251 367.6 561.051 362.8 562.251C358 563.451 286.8 563.851 204.4 563.451L54.8 562.251L78.8 532.251C165.6 423.051 258.4 365.051 382 342.251C463.2 327.051 510.4 297.451 530.4 249.851C534 241.851 539.2 221.851 542.4 205.451C548 175.051 558.8 149.451 569.6 140.651C587.2 125.851 620.4 123.451 642.4 135.451ZM800 285.051C800 287.851 798.8 297.051 797.6 305.051C795.2 319.051 794 320.251 781.6 320.251C769.6 320.251 768 319.051 768 309.051C768 295.851 771.2 291.451 784 285.451C797.2 279.451 800 279.451 800 285.051ZM788 357.051C788 359.851 786.8 369.051 785.6 377.051C783.2 391.051 782 392.251 769.6 392.251C754.8 392.251 753.6 389.051 758.4 364.651C760.8 353.851 762.4 352.251 774.4 352.251C782.8 352.251 788 354.251 788 357.051Z" fill="black"/>
<path d="M601.6 213.451C596.8 216.251 596 238.251 596 343.451C596 437.051 597.2 471.851 600.8 475.451C603.6 478.251 616.8 480.251 632.8 480.251H660V464.251V448.251H644H628V346.251V244.251H644C660 244.251 660 244.251 660 228.651V213.051L633.6 211.451C619.2 211.051 604.8 211.851 601.6 213.451Z" fill="black"/>
<path d="M907.6 211.451C886 212.651 884.8 213.051 882.4 224.651C879.2 241.051 882 244.251 898.4 244.251H912V345.851V447.851L897.2 449.051C882.8 450.251 882 451.051 880.8 465.051L879.6 480.251H909.6C935.2 480.251 940.4 479.051 944 472.651C948.8 463.451 949.6 224.651 944.8 217.851C940.4 211.451 932.4 210.251 907.6 211.451Z" fill="black"/>
</svg>
